<svg xmlns="http://www.w3.org/2000/svg" xmlns:ev="http://www.w3.org/2001/xml-events" xmlns:xlink="http://www.w3.org/1999/xlink" width="3in" height="3in" class="st9" color-interpolation-filters="sRGB" viewBox="0 0 216 216" xml:space="preserve"><style type="text/css">.st1{fill:#fff;stroke:#fff;stroke-width:.75}.st1,.st2,.st3,.st4{stroke-linecap:round;stroke-linejoin:round}.st2{fill:#d8d8d8;stroke:#000;stroke-width:.75}.st3{stroke:red;stroke-width:1}.st4{fill:none;stroke:none;stroke-width:.75}.st5{fill:red;font-family:Calibri;font-size:1.5em}.st6,.st7{fill:#000;font-size:1em}.st7{font-family:Calibri;font-size:1.5em}.st8{stroke:#ffc000;stroke-linecap:round;stroke-linejoin:round;stroke-width:.75}.st9{fill:none;fill-rule:evenodd;font-size:12px;overflow:visible;stroke-linecap:square;stroke-miterlimit:3}</style><g><title>Page-2</title><g id="shape1-1"><title>Sheet.1</title><rect width="216" height="216" x="0" y="0" class="st1"/></g><g id="shape32-3" transform="translate(76.5,-72)"><title>Sheet.32</title><path d="M0 198 L0 162 L31.18 144 L63 162 L63 198 L31.18 216 L0 198 Z" class="st2"/></g><g id="shape33-5" transform="translate(-93.0405,7.58399) rotate(-60.2551)"><title>Sheet.33</title><path d="M0 216 L18.14 216" class="st3"/></g><g id="shape34-8" transform="translate(76.5,-90)"><title>Sheet.34</title><desc>5 4</desc><rect width="63" height="36" x="0" y="180" class="st4"/><text x="18.31" y="203.4" class="st5">5<tspan class="st6"> </tspan><tspan class="st6">4</tspan></text></g><g id="shape35-13" transform="translate(108,-18)"><title>Sheet.35</title><path d="M0 198 L0 162 L31.18 144 L63 162 L63 198 L31.18 216 L0 198 Z" class="st2"/></g><g id="shape36-15" transform="translate(108,-36)"><title>Sheet.36</title><desc>1</desc><rect width="63" height="36" x="0" y="180" class="st4"/><text x="26.94" y="203.4" class="st7">1</text></g><g id="shape37-18" transform="translate(108,-126)"><title>Sheet.37</title><path d="M0 198 L0 162 L31.18 144 L63 162 L63 198 L31.18 216 L0 198 Z" class="st2"/></g><g id="shape38-20" transform="translate(-61.5405,-46.416) rotate(-60.2551)"><title>Sheet.38</title><path d="M0 216 L18.14 216" class="st3"/></g><g id="shape39-23" transform="translate(108,-144)"><title>Sheet.39</title><desc>4 2</desc><rect width="63" height="36" x="0" y="180" class="st4"/><text x="18.31" y="203.4" class="st5">4<tspan class="st6"> </tspan><tspan class="st6">2</tspan></text></g><g id="shape40-28" transform="translate(45,-18)"><title>Sheet.40</title><path d="M0 198 L0 162 L31.18 144 L63 162 L63 198 L31.18 216 L0 198 Z" class="st2"/></g><g id="shape41-30" transform="translate(45,-36)"><title>Sheet.41</title><desc>1</desc><rect width="63" height="36" x="0" y="180" class="st4"/><text x="26.94" y="203.4" class="st7">1</text></g><g id="shape42-33" transform="translate(139.5,-72)"><title>Sheet.42</title><path d="M0 198 L0 162 L31.18 144 L63 162 L63 198 L31.18 216 L0 198 Z" class="st2"/></g><g id="shape43-35" transform="translate(139.5,-90)"><title>Sheet.43</title><desc>2</desc><rect width="63" height="36" x="0" y="180" class="st4"/><text x="26.94" y="203.4" class="st7">2</text></g><g id="shape44-38" transform="translate(13.5,-72)"><title>Sheet.44</title><path d="M0 198 L0 162 L31.18 144 L63 162 L63 198 L31.18 216 L0 198 Z" class="st2"/></g><g id="shape45-40" transform="translate(13.5,-90)"><title>Sheet.45</title><desc>2</desc><rect width="63" height="36" x="0" y="180" class="st4"/><text x="26.94" y="203.4" class="st7">2</text></g><g id="shape46-43" transform="translate(45,-126)"><title>Sheet.46</title><path d="M0 198 L0 162 L31.18 144 L63 162 L63 198 L31.18 216 L0 198 Z" class="st2"/></g><g id="shape47-45" transform="translate(45,-144)"><title>Sheet.47</title><desc>1</desc><rect width="63" height="36" x="0" y="180" class="st4"/><text x="26.94" y="203.4" class="st7">1</text></g><g id="group31-48" transform="translate(-4.55166E-007,0)"><title>Sheet.31</title><g id="shape12-49" transform="translate(4.7167,248.21) rotate(-169.252)"><title>Sheet.12</title><path d="M0 216 L45.8 216" class="st8"/></g><g id="shape13-52" transform="translate(-127.373,197.356) rotate(-109.29)"><title>Sheet.13</title><path d="M0 216 L95.35 216" class="st8"/></g><g id="shape17-55" transform="translate(239.257,141.822) rotate(131.04)"><title>Sheet.17</title><path d="M0 216 L47.73 216" class="st8"/></g><g id="shape18-58" transform="translate(-149.38,55.763) rotate(-48.8141)"><title>Sheet.18</title><path d="M0 216 L95.67 216" class="st8"/></g><g id="shape19-61" transform="translate(-184.073,287.356) rotate(-109.29)"><title>Sheet.19</title><path d="M0 216 L19.07 216" class="st8"/></g><g id="shape20-64" transform="translate(40.55,-16.6781) rotate(10.8204)"><title>Sheet.20</title><path d="M0 216 L13.42 216" class="st8"/></g><g id="shape14-67" transform="translate(130.261,356.185) rotate(-169.216)"><title>Sheet.14</title><path d="M0 216 L96.2 216" class="st8"/></g><g id="shape15-70" transform="translate(-7.38693,288.169) rotate(-109.519)"><title>Sheet.15</title><path d="M0 216 L76.39 216" class="st8"/></g><g id="shape16-73" transform="translate(378.7,234.539) rotate(131.128)"><title>Sheet.16</title><path d="M0 216 L68.42 216" class="st8"/></g></g></g></svg>