<svg xmlns="http://www.w3.org/2000/svg" xmlns:ev="http://www.w3.org/2001/xml-events" xmlns:xlink="http://www.w3.org/1999/xlink" width="3in" height="3in" class="st12" color-interpolation-filters="sRGB" viewBox="0 0 216 216" xml:space="preserve"><style type="text/css">.st1,.st2{fill:#fff;stroke:#fff;stroke-linecap:round;stroke-linejoin:round;stroke-width:.75}.st2{fill:none;stroke:#000}.st3{fill:#fff;stroke:none;stroke-linecap:butt;stroke-width:7.2}.st4{fill:#000;font-family:Calibri;font-size:1.5em}.st5{fill:#fff;stroke:none;stroke-linecap:butt}.st6{stroke:#ffc000;stroke-width:.75}.st6,.st7,.st8,.st9{stroke-linecap:round;stroke-linejoin:round}.st7{fill:#d8d8d8;stroke:#000;stroke-width:.75}.st8{stroke:red;stroke-width:1}.st9{fill:none;stroke:none;stroke-width:.75}.st10{fill:red;font-family:Calibri;font-size:1.5em}.st11{fill:#000;font-size:1em}.st12{fill:none;fill-rule:evenodd;font-size:12px;overflow:visible;stroke-linecap:square;stroke-miterlimit:3}</style><g><title>Page-2</title><g id="shape1-1"><title>Sheet.1</title><rect width="216" height="216" x="0" y="0" class="st1"/></g><g id="shape4-3" transform="translate(13.5,-72)"><title>Sheet.4</title><desc>0</desc><path d="M0 198 L0 162 L31.18 144 L63 162 L63 198 L31.18 216 L0 198 Z" class="st2"/><rect width="9.123" height="21.6" x="26.939" y="169.2" class="st3"/><text x="26.94" y="185.4" class="st4">0</text></g><g id="shape5-7" transform="translate(139.5,-72)"><title>Sheet.5</title><desc>0</desc><path d="M0 198 L0 162 L31.18 144 L63 162 L63 198 L31.18 216 L0 198 Z" class="st2"/><rect width="9.123" height="21.6" x="26.939" y="169.2" class="st5"/><text x="26.94" y="185.4" class="st4">0</text></g><g id="shape6-11" transform="translate(45,-126)"><title>Sheet.6</title><desc>0</desc><path d="M0 198 L0 162 L31.18 144 L63 162 L63 198 L31.18 216 L0 198 Z" class="st2"/><rect width="9.123" height="21.6" x="26.939" y="169.2" class="st3"/><text x="26.94" y="185.4" class="st4">0</text></g><g id="shape7-15" transform="translate(45,-18)"><title>Sheet.7</title><desc>0</desc><path d="M0 198 L0 162 L31.18 144 L63 162 L63 198 L31.18 216 L0 198 Z" class="st2"/><rect width="9.123" height="21.6" x="26.939" y="169.2" class="st3"/><text x="26.94" y="185.4" class="st4">0</text></g><g id="shape12-19" transform="translate(4.7167,248.21) rotate(-169.252)"><title>Sheet.12</title><path d="M0 216 L45.8 216" class="st6"/></g><g id="shape13-22" transform="translate(-127.373,197.356) rotate(-109.29)"><title>Sheet.13</title><path d="M0 216 L95.35 216" class="st6"/></g><g id="shape17-25" transform="translate(239.257,141.822) rotate(131.04)"><title>Sheet.17</title><path d="M0 216 L47.73 216" class="st6"/></g><g id="shape18-28" transform="translate(-149.38,55.763) rotate(-48.8141)"><title>Sheet.18</title><path d="M0 216 L95.67 216" class="st6"/></g><g id="shape19-31" transform="translate(-184.073,287.356) rotate(-109.29)"><title>Sheet.19</title><path d="M0 216 L19.07 216" class="st6"/></g><g id="shape20-34" transform="translate(40.55,-16.6781) rotate(10.8204)"><title>Sheet.20</title><path d="M0 216 L13.42 216" class="st6"/></g><g id="shape22-37" transform="translate(76.5,-72)"><title>Sheet.22</title><path d="M0 198 L0 162 L31.18 144 L63 162 L63 198 L31.18 216 L0 198 Z" class="st7"/></g><g id="shape23-39" transform="translate(-93.0405,7.58399) rotate(-60.2551)"><title>Sheet.23</title><path d="M0 216 L18.14 216" class="st8"/></g><g id="shape25-42" transform="translate(76.5,-90)"><title>Sheet.25</title><desc>5 2</desc><rect width="63" height="36" x="0" y="180" class="st9"/><text x="18.31" y="203.4" class="st10">5<tspan class="st11"> </tspan><tspan class="st11">2</tspan></text></g><g id="shape26-47" transform="translate(108,-18)"><title>Sheet.26</title><path d="M0 198 L0 162 L31.18 144 L63 162 L63 198 L31.18 216 L0 198 Z" class="st7"/></g><g id="shape27-49" transform="translate(108,-36)"><title>Sheet.27</title><desc>1</desc><rect width="63" height="36" x="0" y="180" class="st9"/><text x="26.94" y="203.4" class="st4">1</text></g><g id="shape28-52" transform="translate(108,-126)"><title>Sheet.28</title><path d="M0 198 L0 162 L31.18 144 L63 162 L63 198 L31.18 216 L0 198 Z" class="st7"/></g><g id="shape29-54" transform="translate(-61.5405,-46.416) rotate(-60.2551)"><title>Sheet.29</title><path d="M0 216 L18.14 216" class="st8"/></g><g id="shape30-57" transform="translate(108,-144)"><title>Sheet.30</title><desc>4 1</desc><rect width="63" height="36" x="0" y="180" class="st9"/><text x="18.31" y="203.4" class="st10">4<tspan class="st11"> </tspan><tspan class="st11">1</tspan></text></g><g id="shape14-62" transform="translate(130.261,356.185) rotate(-169.216)"><title>Sheet.14</title><path d="M0 216 L96.2 216" class="st6"/></g><g id="shape15-65" transform="translate(-7.38693,288.169) rotate(-109.519)"><title>Sheet.15</title><path d="M0 216 L76.39 216" class="st6"/></g><g id="shape16-68" transform="translate(378.7,234.539) rotate(131.128)"><title>Sheet.16</title><path d="M0 216 L68.42 216" class="st6"/></g></g></svg>