<svg xmlns="http://www.w3.org/2000/svg" xmlns:ev="http://www.w3.org/2001/xml-events" xmlns:xlink="http://www.w3.org/1999/xlink" width="607" height="289" class="st6" color-interpolation-filters="sRGB" viewBox="0 0 455.25 216.75" xml:space="preserve"><style type="text/css">.st1{stroke:#000;stroke-width:.75}.st1,.st2,.st3{stroke-linecap:round;stroke-linejoin:round}.st2{fill:#00b050;fill-opacity:.5;stroke:#00b050;stroke-width:2.5}.st3{fill:none;stroke:none;stroke-width:.75}.st4{fill:#000;font-family:Calibri;font-size:1.00001em}.st5{stroke:#00b050;stroke-linecap:round;stroke-linejoin:round;stroke-width:2.5}.st6{fill:none;fill-rule:evenodd;font-size:12px;overflow:visible;stroke-linecap:square;stroke-miterlimit:3}</style><rect width="100%" height="100%" fill="#fff"/><g><title>Page-1</title><g id="group1-1" transform="translate(49.875,-18.375)"><title>Sheet.1</title><g id="shape2-2" transform="translate(-216.75,198.75) rotate(-90)"><title>Sheet.2</title><path d="M0 216.75 L36 216.75" class="st1"/></g><g id="shape3-5" transform="translate(-153.75,198.75) rotate(-90)"><title>Sheet.3</title><path d="M0 216.75 L36 216.75" class="st1"/></g><g id="group4-8" transform="translate(6.39488E-014,-54)"><title>Sheet.4</title><g id="shape5-9" transform="translate(-108.375,29.039) rotate(-30)"><title>Sheet.5</title><path d="M0 216.75 L36 216.75" class="st1"/></g><g id="shape6-12" transform="translate(140.198,11.039) rotate(30)"><title>Sheet.6</title><path d="M0 216.75 L36 216.75" class="st1"/></g></g><g id="group7-15" transform="translate(63,415.5) rotate(180)"><title>Sheet.7</title><g id="shape8-16" transform="translate(-108.375,29.039) rotate(-30)"><title>Sheet.8</title><path d="M0 216.75 L36 216.75" class="st1"/></g><g id="shape9-19" transform="translate(140.198,11.039) rotate(30)"><title>Sheet.9</title><path d="M0 216.75 L36 216.75" class="st1"/></g></g></g><g id="group10-22" transform="translate(18.375,-72.375)"><title>Sheet.10</title><g id="shape11-23" transform="translate(-216.75,198.75) rotate(-90)"><title>Sheet.11</title><path d="M0 216.75 L36 216.75" class="st1"/></g><g id="shape12-26" transform="translate(-153.75,198.75) rotate(-90)"><title>Sheet.12</title><path d="M0 216.75 L36 216.75" class="st1"/></g><g id="group13-29" transform="translate(6.39488E-014,-54)"><title>Sheet.13</title><g id="shape14-30" transform="translate(-108.375,29.039) rotate(-30)"><title>Sheet.14</title><path d="M0 216.75 L36 216.75" class="st1"/></g><g id="shape15-33" transform="translate(140.198,11.039) rotate(30)"><title>Sheet.15</title><path d="M0 216.75 L36 216.75" class="st1"/></g></g><g id="group16-36" transform="translate(63,415.5) rotate(180)"><title>Sheet.16</title><g id="shape17-37" transform="translate(-108.375,29.039) rotate(-30)"><title>Sheet.17</title><path d="M0 216.75 L36 216.75" class="st1"/></g><g id="shape18-40" transform="translate(140.198,11.039) rotate(30)"><title>Sheet.18</title><path d="M0 216.75 L36 216.75" class="st1"/></g></g></g><g id="group19-43" transform="translate(81.375,-72.375)"><title>Sheet.19</title><g id="shape20-44" transform="translate(-216.75,198.75) rotate(-90)"><title>Sheet.20</title><path d="M0 216.75 L36 216.75" class="st1"/></g><g id="shape21-47" transform="translate(-153.75,198.75) rotate(-90)"><title>Sheet.21</title><path d="M0 216.75 L36 216.75" class="st1"/></g><g id="group22-50" transform="translate(6.39488E-014,-54)"><title>Sheet.22</title><g id="shape23-51" transform="translate(-108.375,29.039) rotate(-30)"><title>Sheet.23</title><path d="M0 216.75 L36 216.75" class="st1"/></g><g id="shape24-54" transform="translate(140.198,11.039) rotate(30)"><title>Sheet.24</title><path d="M0 216.75 L36 216.75" class="st1"/></g></g><g id="group25-57" transform="translate(63,415.5) rotate(180)"><title>Sheet.25</title><g id="shape26-58" transform="translate(-108.375,29.039) rotate(-30)"><title>Sheet.26</title><path d="M0 216.75 L36 216.75" class="st1"/></g><g id="shape27-61" transform="translate(140.198,11.039) rotate(30)"><title>Sheet.27</title><path d="M0 216.75 L36 216.75" class="st1"/></g></g></g><g id="group28-64" transform="translate(49.875,-126.375)"><title>Sheet.28</title><g id="shape29-65" transform="translate(-216.75,198.75) rotate(-90)"><title>Sheet.29</title><path d="M0 216.75 L36 216.75" class="st1"/></g><g id="shape30-68" transform="translate(-153.75,198.75) rotate(-90)"><title>Sheet.30</title><path d="M0 216.75 L36 216.75" class="st1"/></g><g id="group31-71" transform="translate(6.39488E-014,-54)"><title>Sheet.31</title><g id="shape32-72" transform="translate(-108.375,29.039) rotate(-30)"><title>Sheet.32</title><path d="M0 216.75 L36 216.75" class="st1"/></g><g id="shape33-75" transform="translate(140.198,11.039) rotate(30)"><title>Sheet.33</title><path d="M0 216.75 L36 216.75" class="st1"/></g></g><g id="group34-78" transform="translate(63,415.5) rotate(180)"><title>Sheet.34</title><g id="shape35-79" transform="translate(-108.375,29.039) rotate(-30)"><title>Sheet.35</title><path d="M0 216.75 L36 216.75" class="st1"/></g><g id="shape36-82" transform="translate(140.198,11.039) rotate(30)"><title>Sheet.36</title><path d="M0 216.75 L36 216.75" class="st1"/></g></g></g><g id="group37-85" transform="translate(112.875,-18.375)"><title>Sheet.37</title><g id="shape38-86" transform="translate(-216.75,198.75) rotate(-90)"><title>Sheet.38</title><path d="M0 216.75 L36 216.75" class="st1"/></g><g id="shape39-89" transform="translate(-153.75,198.75) rotate(-90)"><title>Sheet.39</title><path d="M0 216.75 L36 216.75" class="st1"/></g><g id="group40-92" transform="translate(6.39488E-014,-54)"><title>Sheet.40</title><g id="shape41-93" transform="translate(-108.375,29.039) rotate(-30)"><title>Sheet.41</title><path d="M0 216.75 L36 216.75" class="st1"/></g><g id="shape42-96" transform="translate(140.198,11.039) rotate(30)"><title>Sheet.42</title><path d="M0 216.75 L36 216.75" class="st1"/></g></g><g id="group43-99" transform="translate(63,415.5) rotate(180)"><title>Sheet.43</title><g id="shape44-100" transform="translate(-108.375,29.039) rotate(-30)"><title>Sheet.44</title><path d="M0 216.75 L36 216.75" class="st1"/></g><g id="shape45-103" transform="translate(140.198,11.039) rotate(30)"><title>Sheet.45</title><path d="M0 216.75 L36 216.75" class="st1"/></g></g></g><g id="group46-106" transform="translate(144.375,-72.375)"><title>Sheet.46</title><g id="shape47-107" transform="translate(-216.75,198.75) rotate(-90)"><title>Sheet.47</title><path d="M0 216.75 L36 216.75" class="st1"/></g><g id="shape48-110" transform="translate(-153.75,198.75) rotate(-90)"><title>Sheet.48</title><path d="M0 216.75 L36 216.75" class="st1"/></g><g id="group49-113" transform="translate(6.39488E-014,-54)"><title>Sheet.49</title><g id="shape50-114" transform="translate(-108.375,29.039) rotate(-30)"><title>Sheet.50</title><path d="M0 216.75 L36 216.75" class="st1"/></g><g id="shape51-117" transform="translate(140.198,11.039) rotate(30)"><title>Sheet.51</title><path d="M0 216.75 L36 216.75" class="st1"/></g></g><g id="group52-120" transform="translate(63,415.5) rotate(180)"><title>Sheet.52</title><g id="shape53-121" transform="translate(-108.375,29.039) rotate(-30)"><title>Sheet.53</title><path d="M0 216.75 L36 216.75" class="st1"/></g><g id="shape54-124" transform="translate(140.198,11.039) rotate(30)"><title>Sheet.54</title><path d="M0 216.75 L36 216.75" class="st1"/></g></g></g><g id="group55-127" transform="translate(112.875,-126.375)"><title>Sheet.55</title><g id="shape56-128" transform="translate(-216.75,198.75) rotate(-90)"><title>Sheet.56</title><path d="M0 216.75 L36 216.75" class="st1"/></g><g id="shape57-131" transform="translate(-153.75,198.75) rotate(-90)"><title>Sheet.57</title><path d="M0 216.75 L36 216.75" class="st1"/></g><g id="group58-134" transform="translate(6.39488E-014,-54)"><title>Sheet.58</title><g id="shape59-135" transform="translate(-108.375,29.039) rotate(-30)"><title>Sheet.59</title><path d="M0 216.75 L36 216.75" class="st1"/></g><g id="shape60-138" transform="translate(140.198,11.039) rotate(30)"><title>Sheet.60</title><path d="M0 216.75 L36 216.75" class="st1"/></g></g><g id="group61-141" transform="translate(63,415.5) rotate(180)"><title>Sheet.61</title><g id="shape62-142" transform="translate(-108.375,29.039) rotate(-30)"><title>Sheet.62</title><path d="M0 216.75 L36 216.75" class="st1"/></g><g id="shape63-145" transform="translate(140.198,11.039) rotate(30)"><title>Sheet.63</title><path d="M0 216.75 L36 216.75" class="st1"/></g></g></g><g id="shape64-148" transform="translate(69.5625,-40.875)"><title>Sheet.64</title><path d="M0 210 L0 196.5 L11.69 189.75 L23.63 196.5 L23.63 210 L11.69 216.75 L0 210 Z" class="st2"/></g><g id="shape65-150" transform="translate(69.5625,-40.875)"><title>Sheet.65</title><desc>1</desc><rect width="23.625" height="27" x="0" y="189.75" class="st3"/><text x="8.77" y="206.85" class="st4">1</text></g><g id="shape66-153" transform="translate(162.375,-94.875)"><title>Sheet.66</title><path d="M0 210 L0 196.5 L11.69 189.75 L23.63 196.5 L23.63 210 L11.69 216.75 L0 210 Z" class="st2"/></g><g id="shape67-155" transform="translate(162.375,-94.875)"><title>Sheet.67</title><desc>1</desc><rect width="23.625" height="27" x="0" y="189.75" class="st3"/><text x="8.77" y="206.85" class="st4">1</text></g><g id="shape68-158" transform="translate(135.375,-144.375)"><title>Sheet.68</title><path d="M0 210 L0 196.5 L11.69 189.75 L23.63 196.5 L23.63 210 L11.69 216.75 L0 210 Z" class="st2"/></g><g id="shape69-160" transform="translate(135.375,-144.375)"><title>Sheet.69</title><desc>1</desc><rect width="23.625" height="27" x="0" y="189.75" class="st3"/><text x="8.77" y="206.85" class="st4">1</text></g><g id="shape70-163" transform="translate(38.0625,-108.375)"><title>Sheet.70</title><path d="M0 210 L0 196.5 L11.69 189.75 L23.63 196.5 L23.63 210 L11.69 216.75 L0 210 Z" class="st2"/></g><g id="shape71-165" transform="translate(38.0625,-108.375)"><title>Sheet.71</title><desc>1</desc><rect width="23.625" height="27" x="0" y="189.75" class="st3"/><text x="8.77" y="206.85" class="st4">1</text></g><g id="shape72-168" transform="translate(101.063,-85.875)"><title>Sheet.72</title><path d="M0 210 L0 196.5 L11.69 189.75 L23.63 196.5 L23.63 210 L11.69 216.75 L0 210 Z" class="st2"/></g><g id="shape73-170" transform="translate(101.062,-85.875)"><title>Sheet.73</title><desc>1</desc><rect width="23.625" height="27" x="0" y="189.75" class="st3"/><text x="8.77" y="206.85" class="st4">1</text></g><g id="shape74-173" transform="translate(-16.3101,-31.4334) rotate(-30.3432)"><title>Sheet.74</title><path d="M0 216.75 L80.17 216.75" class="st5"/></g><g id="shape75-176" transform="translate(-25.4166,197.504) rotate(-117.127)"><title>Sheet.75</title><path d="M0 216.75 L32.97 216.75" class="st5"/></g><g id="shape76-179" transform="translate(230.52,253.626) rotate(153.962)"><title>Sheet.76</title><path d="M0 216.75 L82.01 216.75" class="st5"/></g><g id="shape77-182" transform="translate(109.985,-109.676) rotate(12.875)"><title>Sheet.77</title><path d="M0 216.75 L40.39 216.75" class="st5"/></g><g id="group78-185" transform="translate(279.375,-18.375)"><title>Sheet.78</title><g id="shape79-186" transform="translate(-216.75,198.75) rotate(-90)"><title>Sheet.79</title><path d="M0 216.75 L36 216.75" class="st1"/></g><g id="shape80-189" transform="translate(-153.75,198.75) rotate(-90)"><title>Sheet.80</title><path d="M0 216.75 L36 216.75" class="st1"/></g><g id="group81-192" transform="translate(6.39488E-014,-54)"><title>Sheet.81</title><g id="shape82-193" transform="translate(-108.375,29.039) rotate(-30)"><title>Sheet.82</title><path d="M0 216.75 L36 216.75" class="st1"/></g><g id="shape83-196" transform="translate(140.198,11.039) rotate(30)"><title>Sheet.83</title><path d="M0 216.75 L36 216.75" class="st1"/></g></g><g id="group84-199" transform="translate(63,415.5) rotate(180)"><title>Sheet.84</title><g id="shape85-200" transform="translate(-108.375,29.039) rotate(-30)"><title>Sheet.85</title><path d="M0 216.75 L36 216.75" class="st1"/></g><g id="shape86-203" transform="translate(140.198,11.039) rotate(30)"><title>Sheet.86</title><path d="M0 216.75 L36 216.75" class="st1"/></g></g></g><g id="group87-206" transform="translate(247.875,-72.375)"><title>Sheet.87</title><g id="shape88-207" transform="translate(-216.75,198.75) rotate(-90)"><title>Sheet.88</title><path d="M0 216.75 L36 216.75" class="st1"/></g><g id="shape89-210" transform="translate(-153.75,198.75) rotate(-90)"><title>Sheet.89</title><path d="M0 216.75 L36 216.75" class="st1"/></g><g id="group90-213" transform="translate(6.39488E-014,-54)"><title>Sheet.90</title><g id="shape91-214" transform="translate(-108.375,29.039) rotate(-30)"><title>Sheet.91</title><path d="M0 216.75 L36 216.75" class="st1"/></g><g id="shape92-217" transform="translate(140.198,11.039) rotate(30)"><title>Sheet.92</title><path d="M0 216.75 L36 216.75" class="st1"/></g></g><g id="group93-220" transform="translate(63,415.5) rotate(180)"><title>Sheet.93</title><g id="shape94-221" transform="translate(-108.375,29.039) rotate(-30)"><title>Sheet.94</title><path d="M0 216.75 L36 216.75" class="st1"/></g><g id="shape95-224" transform="translate(140.198,11.039) rotate(30)"><title>Sheet.95</title><path d="M0 216.75 L36 216.75" class="st1"/></g></g></g><g id="group96-227" transform="translate(310.875,-72.375)"><title>Sheet.96</title><g id="shape97-228" transform="translate(-216.75,198.75) rotate(-90)"><title>Sheet.97</title><path d="M0 216.75 L36 216.75" class="st1"/></g><g id="shape98-231" transform="translate(-153.75,198.75) rotate(-90)"><title>Sheet.98</title><path d="M0 216.75 L36 216.75" class="st1"/></g><g id="group99-234" transform="translate(6.39488E-014,-54)"><title>Sheet.99</title><g id="shape100-235" transform="translate(-108.375,29.039) rotate(-30)"><title>Sheet.100</title><path d="M0 216.75 L36 216.75" class="st1"/></g><g id="shape101-238" transform="translate(140.198,11.039) rotate(30)"><title>Sheet.101</title><path d="M0 216.75 L36 216.75" class="st1"/></g></g><g id="group102-241" transform="translate(63,415.5) rotate(180)"><title>Sheet.102</title><g id="shape103-242" transform="translate(-108.375,29.039) rotate(-30)"><title>Sheet.103</title><path d="M0 216.75 L36 216.75" class="st1"/></g><g id="shape104-245" transform="translate(140.198,11.039) rotate(30)"><title>Sheet.104</title><path d="M0 216.75 L36 216.75" class="st1"/></g></g></g><g id="group105-248" transform="translate(279.375,-126.375)"><title>Sheet.105</title><g id="shape106-249" transform="translate(-216.75,198.75) rotate(-90)"><title>Sheet.106</title><path d="M0 216.75 L36 216.75" class="st1"/></g><g id="shape107-252" transform="translate(-153.75,198.75) rotate(-90)"><title>Sheet.107</title><path d="M0 216.75 L36 216.75" class="st1"/></g><g id="group108-255" transform="translate(6.39488E-014,-54)"><title>Sheet.108</title><g id="shape109-256" transform="translate(-108.375,29.039) rotate(-30)"><title>Sheet.109</title><path d="M0 216.75 L36 216.75" class="st1"/></g><g id="shape110-259" transform="translate(140.198,11.039) rotate(30)"><title>Sheet.110</title><path d="M0 216.75 L36 216.75" class="st1"/></g></g><g id="group111-262" transform="translate(63,415.5) rotate(180)"><title>Sheet.111</title><g id="shape112-263" transform="translate(-108.375,29.039) rotate(-30)"><title>Sheet.112</title><path d="M0 216.75 L36 216.75" class="st1"/></g><g id="shape113-266" transform="translate(140.198,11.039) rotate(30)"><title>Sheet.113</title><path d="M0 216.75 L36 216.75" class="st1"/></g></g></g><g id="group114-269" transform="translate(342.375,-18.375)"><title>Sheet.114</title><g id="shape115-270" transform="translate(-216.75,198.75) rotate(-90)"><title>Sheet.115</title><path d="M0 216.75 L36 216.75" class="st1"/></g><g id="shape116-273" transform="translate(-153.75,198.75) rotate(-90)"><title>Sheet.116</title><path d="M0 216.75 L36 216.75" class="st1"/></g><g id="group117-276" transform="translate(6.39488E-014,-54)"><title>Sheet.117</title><g id="shape118-277" transform="translate(-108.375,29.039) rotate(-30)"><title>Sheet.118</title><path d="M0 216.75 L36 216.75" class="st1"/></g><g id="shape119-280" transform="translate(140.198,11.039) rotate(30)"><title>Sheet.119</title><path d="M0 216.75 L36 216.75" class="st1"/></g></g><g id="group120-283" transform="translate(63,415.5) rotate(180)"><title>Sheet.120</title><g id="shape121-284" transform="translate(-108.375,29.039) rotate(-30)"><title>Sheet.121</title><path d="M0 216.75 L36 216.75" class="st1"/></g><g id="shape122-287" transform="translate(140.198,11.039) rotate(30)"><title>Sheet.122</title><path d="M0 216.75 L36 216.75" class="st1"/></g></g></g><g id="group123-290" transform="translate(373.875,-72.375)"><title>Sheet.123</title><g id="shape124-291" transform="translate(-216.75,198.75) rotate(-90)"><title>Sheet.124</title><path d="M0 216.75 L36 216.75" class="st1"/></g><g id="shape125-294" transform="translate(-153.75,198.75) rotate(-90)"><title>Sheet.125</title><path d="M0 216.75 L36 216.75" class="st1"/></g><g id="group126-297" transform="translate(6.39488E-014,-54)"><title>Sheet.126</title><g id="shape127-298" transform="translate(-108.375,29.039) rotate(-30)"><title>Sheet.127</title><path d="M0 216.75 L36 216.75" class="st1"/></g><g id="shape128-301" transform="translate(140.198,11.039) rotate(30)"><title>Sheet.128</title><path d="M0 216.75 L36 216.75" class="st1"/></g></g><g id="group129-304" transform="translate(63,415.5) rotate(180)"><title>Sheet.129</title><g id="shape130-305" transform="translate(-108.375,29.039) rotate(-30)"><title>Sheet.130</title><path d="M0 216.75 L36 216.75" class="st1"/></g><g id="shape131-308" transform="translate(140.198,11.039) rotate(30)"><title>Sheet.131</title><path d="M0 216.75 L36 216.75" class="st1"/></g></g></g><g id="group132-311" transform="translate(342.375,-126.375)"><title>Sheet.132</title><g id="shape133-312" transform="translate(-216.75,198.75) rotate(-90)"><title>Sheet.133</title><path d="M0 216.75 L36 216.75" class="st1"/></g><g id="shape134-315" transform="translate(-153.75,198.75) rotate(-90)"><title>Sheet.134</title><path d="M0 216.75 L36 216.75" class="st1"/></g><g id="group135-318" transform="translate(6.39488E-014,-54)"><title>Sheet.135</title><g id="shape136-319" transform="translate(-108.375,29.039) rotate(-30)"><title>Sheet.136</title><path d="M0 216.75 L36 216.75" class="st1"/></g><g id="shape137-322" transform="translate(140.198,11.039) rotate(30)"><title>Sheet.137</title><path d="M0 216.75 L36 216.75" class="st1"/></g></g><g id="group138-325" transform="translate(63,415.5) rotate(180)"><title>Sheet.138</title><g id="shape139-326" transform="translate(-108.375,29.039) rotate(-30)"><title>Sheet.139</title><path d="M0 216.75 L36 216.75" class="st1"/></g><g id="shape140-329" transform="translate(140.198,11.039) rotate(30)"><title>Sheet.140</title><path d="M0 216.75 L36 216.75" class="st1"/></g></g></g><g id="shape141-332" transform="translate(299.062,-40.875)"><title>Sheet.141</title><path d="M0 210 L0 196.5 L11.69 189.75 L23.63 196.5 L23.63 210 L11.69 216.75 L0 210 Z" class="st2"/></g><g id="shape142-334" transform="translate(299.062,-40.875)"><title>Sheet.142</title><desc>20</desc><rect width="23.625" height="27" x="0" y="189.75" class="st3"/><text x="5.73" y="206.85" class="st4">20</text></g><g id="shape143-337" transform="translate(391.875,-94.875)"><title>Sheet.143</title><path d="M0 210 L0 196.5 L11.69 189.75 L23.63 196.5 L23.63 210 L11.69 216.75 L0 210 Z" class="st2"/></g><g id="shape144-339" transform="translate(391.875,-94.875)"><title>Sheet.144</title><desc>20</desc><rect width="23.625" height="27" x="0" y="189.75" class="st3"/><text x="5.73" y="206.85" class="st4">20</text></g><g id="shape145-342" transform="translate(364.875,-144.375)"><title>Sheet.145</title><path d="M0 210 L0 196.5 L11.69 189.75 L23.63 196.5 L23.63 210 L11.69 216.75 L0 210 Z" class="st2"/></g><g id="shape146-344" transform="translate(364.875,-144.375)"><title>Sheet.146</title><desc>20</desc><rect width="23.625" height="27" x="0" y="189.75" class="st3"/><text x="5.73" y="206.85" class="st4">20</text></g><g id="shape147-347" transform="translate(267.563,-108.375)"><title>Sheet.147</title><path d="M0 210 L0 196.5 L11.69 189.75 L23.63 196.5 L23.63 210 L11.69 216.75 L0 210 Z" class="st2"/></g><g id="shape148-349" transform="translate(267.563,-108.375)"><title>Sheet.148</title><desc>20</desc><rect width="23.625" height="27" x="0" y="189.75" class="st3"/><text x="5.73" y="206.85" class="st4">20</text></g><g id="shape149-352" transform="translate(330.563,-85.875)"><title>Sheet.149</title><path d="M0 210 L0 196.5 L11.69 189.75 L23.63 196.5 L23.63 210 L11.69 216.75 L0 210 Z" class="st2"/></g><g id="shape150-354" transform="translate(330.563,-85.875)"><title>Sheet.150</title><desc>20</desc><rect width="23.625" height="27" x="0" y="189.75" class="st3"/><text x="5.73" y="206.85" class="st4">20</text></g><g id="shape151-357" transform="translate(213.19,-31.4334) rotate(-30.3432)"><title>Sheet.151</title><path d="M0 216.75 L80.17 216.75" class="st5"/></g><g id="shape152-360" transform="translate(204.083,197.504) rotate(-117.127)"><title>Sheet.152</title><path d="M0 216.75 L32.97 216.75" class="st5"/></g><g id="shape153-363" transform="translate(460.02,253.626) rotate(153.962)"><title>Sheet.153</title><path d="M0 216.75 L82.01 216.75" class="st5"/></g><g id="shape154-366" transform="translate(339.485,-109.676) rotate(12.875)"><title>Sheet.154</title><path d="M0 216.75 L40.39 216.75" class="st5"/></g></g></svg>