<svg xmlns="http://www.w3.org/2000/svg" xmlns:ev="http://www.w3.org/2001/xml-events" xmlns:xlink="http://www.w3.org/1999/xlink" width="789.235" height="405.235" class="st11" color-interpolation-filters="sRGB" viewBox="0 0 591.926 303.926" xml:space="preserve"><style type="text/css">.st1,.st2{fill:#fff;stroke:none;stroke-linecap:round;stroke-linejoin:round;stroke-width:.75}.st2{fill:#92d050;stroke:#000}.st3{fill:#000;font-family:Calibri;font-size:1.00001em}.st4{marker-end:url(#mrkr5-26);marker-start:url(#mrkr5-24);stroke:#000;stroke-linecap:round;stroke-linejoin:round;stroke-width:.75}.st5{fill:#000;fill-opacity:1;stroke-opacity:1;stroke-width:.22935779816514}.st5,.st6{stroke:#000}.st6,.st7,.st8{stroke-linecap:round;stroke-linejoin:round;stroke-width:.75}.st7{fill:none;stroke:none}.st8{marker-end:url(#mrkr5-26);stroke:#000}.st9{font-size:1em}.st10{fill:#000;font-family:Calibri;font-size:1.33333em;font-weight:700}.st11{fill:none;fill-rule:evenodd;font-size:12px;overflow:visible;stroke-linecap:square;stroke-miterlimit:3}</style><defs id="Markers"><g id="lend5"><path d="M 2 1 L 0 0 L 1.98117 -0.993387 C 1.67173 -0.364515 1.67301 0.372641 1.98465 1.00043" style="stroke:none"/></g><marker id="mrkr5-24" class="st5" markerUnits="strokeWidth" orient="auto" overflow="visible" refX="7.15"><use transform="scale(4.36)" xlink:href="#lend5"/></marker><marker id="mrkr5-26" class="st5" markerUnits="strokeWidth" orient="auto" overflow="visible" refX="-7.63"><use transform="scale(-4.36,-4.36)" xlink:href="#lend5"/></marker></defs><g><title>Page-1</title><g id="shape141-1" transform="translate(1.125,-1.125)"><title>Sheet.141</title><rect width="589.5" height="301.5" x="0" y="2.426" class="st1"/></g><g id="shape5-3" transform="translate(420.75,-122.5)"><title>Sheet.5</title><desc>A</desc><ellipse cx="9" cy="294.926" class="st2" rx="9" ry="9"/><text x="5.53" y="298.53" class="st3">A</text></g><g id="shape6-6" transform="translate(477,-165.25)"><title>Sheet.6</title><desc>E</desc><ellipse cx="9" cy="294.926" class="st2" rx="9" ry="9"/><text x="6.07" y="298.53" class="st3">E</text></g><g id="shape7-9" transform="translate(533.25,-122.5)"><title>Sheet.7</title><desc>D</desc><ellipse cx="9" cy="294.926" class="st2" rx="9" ry="9"/><text x="5.31" y="298.53" class="st3">D</text></g><g id="shape8-12" transform="translate(506.25,-66.25)"><title>Sheet.8</title><desc>C</desc><ellipse cx="9" cy="294.926" class="st2" rx="9" ry="9"/><text x="5.8" y="298.53" class="st3">C</text></g><g id="shape9-15" transform="translate(450,-66.25)"><title>Sheet.9</title><desc>B</desc><ellipse cx="9" cy="294.926" class="st2" rx="9" ry="9"/><text x="5.74" y="298.53" class="st3">B</text></g><g id="shape10-18" transform="translate(438.75,-131.5)"><title>Sheet.10</title><path d="M5.36 303.93 L5.72 303.93 L88.78 303.93" class="st4"/></g><g id="shape11-27" transform="translate(260.171,-79.3416) rotate(-35.5728)"><title>Sheet.11</title><path d="M5.36 303.93 L5.72 303.93 L48.35 303.93" class="st4"/></g><g id="shape12-34" transform="translate(704.073,37.8541) rotate(62.411)"><title>Sheet.12</title><path d="M5.36 303.93 L5.72 303.93 L41.19 303.93" class="st4"/></g><g id="shape14-41" transform="translate(603.566,-78.2356) rotate(33.1173)"><title>Sheet.14</title><path d="M5.36 303.93 L5.72 303.93 L78.17 303.93" class="st4"/></g><g id="shape15-48" transform="translate(467.92,-76.4473)"><title>Sheet.15</title><path d="M5.36 303.93 L5.72 303.93 L32.69 303.93" class="st4"/></g><g id="shape16-55" transform="translate(243.924,91.2109) rotate(-64.8268)"><title>Sheet.16</title><path d="M5.36 303.93 L5.72 303.93 L38.69 303.93" class="st4"/></g><g id="shape17-62" transform="translate(378.631,424.015) rotate(-148.509)"><title>Sheet.17</title><path d="M5.36 303.93 L5.72 303.93 L48.66 303.93" class="st4"/></g><g id="shape18-69" transform="translate(774.322,41.6225) rotate(71.3788)"><title>Sheet.18</title><path d="M5.36 303.93 L5.72 303.93 L79.79 303.93" class="st4"/></g><g id="shape19-76" transform="translate(701.501,429.175) rotate(146.56)"><title>Sheet.19</title><path d="M5.36 303.93 L5.72 303.93 L78.25 303.93" class="st4"/></g><g id="shape20-83" transform="translate(775.875,220.41) rotate(105.71)"><title>Sheet.20</title><path d="M5.36 303.93 L5.72 303.93 L79.14 303.93" class="st4"/></g><g id="shape31-90" transform="translate(249.75,-124.75)"><title>Sheet.31</title><desc>F</desc><ellipse cx="9" cy="294.926" class="st2" rx="9" ry="9"/><text x="6.24" y="298.53" class="st3">F</text></g><g id="shape32-93" transform="translate(303.75,-156.25)"><title>Sheet.32</title><desc>E</desc><ellipse cx="9" cy="294.926" class="st2" rx="9" ry="9"/><text x="6.07" y="298.53" class="st3">E</text></g><g id="shape33-96" transform="translate(357.75,-124.75)"><title>Sheet.33</title><desc>D</desc><ellipse cx="9" cy="294.926" class="st2" rx="9" ry="9"/><text x="5.31" y="298.53" class="st3">D</text></g><g id="shape34-99" transform="translate(328.5,-70.75)"><title>Sheet.34</title><desc>C</desc><ellipse cx="9" cy="294.926" class="st2" rx="9" ry="9"/><text x="5.8" y="298.53" class="st3">C</text></g><g id="shape35-102" transform="translate(276.75,-75.25)"><title>Sheet.35</title><desc>B</desc><ellipse cx="9" cy="294.926" class="st2" rx="9" ry="9"/><text x="5.74" y="298.53" class="st3">B</text></g><g id="shape46-105" transform="translate(303.75,-111.25)"><title>Sheet.46</title><desc>A</desc><ellipse cx="9" cy="294.926" class="st2" rx="9" ry="9"/><text x="5.53" y="298.53" class="st3">A</text></g><g id="shape47-108" transform="translate(251.265,-113.924) rotate(-13.3701)"><title>Sheet.47</title><path d="M5.36 303.93 L5.72 303.93 L31.97 303.93" class="st4"/></g><g id="shape48-115" transform="translate(8.8237,174.809) rotate(-90)"><title>Sheet.48</title><path d="M5.36 303.93 L5.72 303.93 L21.41 303.93" class="st4"/></g><g id="shape49-122" transform="translate(237.515,475.851) rotate(-167.21)"><title>Sheet.49</title><path d="M5.36 303.93 L5.72 303.93 L32.31 303.93" class="st4"/></g><g id="shape50-129" transform="translate(522.792,406.155) rotate(135)"><title>Sheet.50</title><path d="M5.36 303.93 L5.72 303.93 L22.21 303.93" class="st4"/></g><g id="shape51-136" transform="translate(576.694,31.4142) rotate(58.3324)"><title>Sheet.51</title><path d="M5.36 303.93 L5.72 303.93 L23.81 303.93" class="st4"/></g><g id="shape125-143" transform="translate(67.5,-246.25)"><title>Sheet.125</title><desc>A</desc><ellipse cx="9" cy="294.926" class="st2" rx="9" ry="9"/><text x="5.53" y="298.53" class="st3">A</text></g><g id="shape126-146" transform="translate(121.5,-246.25)"><title>Sheet.126</title><desc>B</desc><ellipse cx="9" cy="294.926" class="st2" rx="9" ry="9"/><text x="5.74" y="298.53" class="st3">B</text></g><g id="shape127-149" transform="translate(85.5,-255.25)"><title>Sheet.127</title><path d="M5.36 303.93 L5.72 303.93 L30.28 303.93" class="st4"/></g><g id="group128-156" transform="translate(31.5,-39.25)"><title>Sheet.128</title><g id="group123-157" transform="translate(9,-9)"><title>Sheet.123</title><g id="group108-158"><title>Sheet.108</title><g id="group104-159"><title>Sheet.104</title><g id="shape102-160" transform="translate(375.926,159.926) rotate(90)"><title>Sheet.102</title><path d="M0 303.93 L144 303.93" class="st6"/></g><g id="shape103-163" transform="translate(0,-72)"><title>Sheet.103</title><path d="M0 303.93 L144 303.93" class="st6"/></g></g><g id="group105-166" transform="translate(-142.908,118.841) rotate(-45)"><title>Sheet.105</title><g id="shape106-167" transform="translate(375.926,159.926) rotate(90)"><title>Sheet.106</title><path d="M0 303.93 L144 303.93" class="st6"/></g><g id="shape107-170" transform="translate(0,-72)"><title>Sheet.107</title><path d="M0 303.93 L144 303.93" class="st6"/></g></g></g><g id="group109-173" transform="translate(-106.114,67.0722) rotate(-30)"><title>Sheet.109</title><g id="group110-174"><title>Sheet.110</title><g id="shape111-175" transform="translate(375.926,159.926) rotate(90)"><title>Sheet.111</title><path d="M0 303.93 L144 303.93" class="st6"/></g><g id="shape112-178" transform="translate(0,-72)"><title>Sheet.112</title><path d="M0 303.93 L144 303.93" class="st6"/></g></g><g id="group113-181" transform="translate(-142.908,118.841) rotate(-45)"><title>Sheet.113</title><g id="shape114-182" transform="translate(375.926,159.926) rotate(90)"><title>Sheet.114</title><path d="M0 303.93 L144 303.93" class="st6"/></g><g id="shape115-185" transform="translate(0,-72)"><title>Sheet.115</title><path d="M0 303.93 L144 303.93" class="st6"/></g></g></g><g id="group116-188" transform="translate(125.813,-4.92777) rotate(30)"><title>Sheet.116</title><g id="group117-189"><title>Sheet.117</title><g id="shape118-190" transform="translate(375.926,159.926) rotate(90)"><title>Sheet.118</title><path d="M0 303.93 L144 303.93" class="st6"/></g><g id="shape119-193" transform="translate(0,-72)"><title>Sheet.119</title><path d="M0 303.93 L144 303.93" class="st6"/></g></g><g id="group120-196" transform="translate(-142.908,118.841) rotate(-45)"><title>Sheet.120</title><g id="shape121-197" transform="translate(375.926,159.926) rotate(90)"><title>Sheet.121</title><path d="M0 303.93 L144 303.93" class="st6"/></g><g id="shape122-200" transform="translate(0,-72)"><title>Sheet.122</title><path d="M0 303.93 L144 303.93" class="st6"/></g></g></g></g><g id="group74-203"><title>Sheet.74</title><g id="group59-204"><title>Sheet.59</title><g id="group54-205" transform="translate(0,-72)"><title>Sheet.54</title><g id="shape52-206"><title>Sheet.52</title><ellipse cx="9" cy="294.926" class="st2" rx="9" ry="9"/></g><g id="shape53-208" transform="translate(144,0)"><title>Sheet.53</title><ellipse cx="9" cy="294.926" class="st2" rx="9" ry="9"/></g></g><g id="group55-210" transform="translate(-213.926,303.926) rotate(-90)"><title>Sheet.55</title><g id="shape56-211"><title>Sheet.56</title><ellipse cx="9" cy="294.926" class="st2" rx="9" ry="9"/></g><g id="shape57-213" transform="translate(144,0)"><title>Sheet.57</title><ellipse cx="9" cy="294.926" class="st2" rx="9" ry="9"/></g></g></g><g id="group60-215" transform="translate(-100.611,70.3665) rotate(-30)"><title>Sheet.60</title><g id="group61-216" transform="translate(0,-72)"><title>Sheet.61</title><g id="shape62-217"><title>Sheet.62</title><ellipse cx="9" cy="294.926" class="st2" rx="9" ry="9"/></g><g id="shape63-219" transform="translate(144,0)"><title>Sheet.63</title><ellipse cx="9" cy="294.926" class="st2" rx="9" ry="9"/></g></g><g id="group64-221" transform="translate(-213.926,303.926) rotate(-90)"><title>Sheet.64</title><g id="shape65-222"><title>Sheet.65</title><ellipse cx="9" cy="294.926" class="st2" rx="9" ry="9"/></g><g id="shape66-224" transform="translate(144,0)"><title>Sheet.66</title><ellipse cx="9" cy="294.926" class="st2" rx="9" ry="9"/></g></g></g><g id="group67-226" transform="translate(122.315,-10.6335) rotate(30)"><title>Sheet.67</title><g id="group68-227" transform="translate(0,-72)"><title>Sheet.68</title><g id="shape69-228"><title>Sheet.69</title><ellipse cx="9" cy="294.926" class="st2" rx="9" ry="9"/></g><g id="shape70-230" transform="translate(144,0)"><title>Sheet.70</title><ellipse cx="9" cy="294.926" class="st2" rx="9" ry="9"/></g></g><g id="group71-232" transform="translate(-213.926,303.926) rotate(-90)"><title>Sheet.71</title><g id="shape72-233"><title>Sheet.72</title><ellipse cx="9" cy="294.926" class="st2" rx="9" ry="9"/></g><g id="shape73-235" transform="translate(144,0)"><title>Sheet.73</title><ellipse cx="9" cy="294.926" class="st2" rx="9" ry="9"/></g></g></g></g><g id="group75-237" transform="translate(-54.9376,28.5604) rotate(-15)"><title>Sheet.75</title><g id="group76-238"><title>Sheet.76</title><g id="group77-239" transform="translate(0,-72)"><title>Sheet.77</title><g id="shape78-240"><title>Sheet.78</title><ellipse cx="9" cy="294.926" class="st2" rx="9" ry="9"/></g><g id="shape79-242" transform="translate(144,0)"><title>Sheet.79</title><ellipse cx="9" cy="294.926" class="st2" rx="9" ry="9"/></g></g><g id="group80-244" transform="translate(-213.926,303.926) rotate(-90)"><title>Sheet.80</title><g id="shape81-245"><title>Sheet.81</title><ellipse cx="9" cy="294.926" class="st2" rx="9" ry="9"/></g><g id="shape82-247" transform="translate(144,0)"><title>Sheet.82</title><ellipse cx="9" cy="294.926" class="st2" rx="9" ry="9"/></g></g></g><g id="group83-249" transform="translate(-100.611,70.3665) rotate(-30)"><title>Sheet.83</title><g id="group84-250" transform="translate(0,-72)"><title>Sheet.84</title><g id="shape85-251"><title>Sheet.85</title><ellipse cx="9" cy="294.926" class="st2" rx="9" ry="9"/></g><g id="shape86-253" transform="translate(144,0)"><title>Sheet.86</title><ellipse cx="9" cy="294.926" class="st2" rx="9" ry="9"/></g></g><g id="group87-255" transform="translate(-213.926,303.926) rotate(-90)"><title>Sheet.87</title><g id="shape88-256"><title>Sheet.88</title><ellipse cx="9" cy="294.926" class="st2" rx="9" ry="9"/></g><g id="shape89-258" transform="translate(144,0)"><title>Sheet.89</title><ellipse cx="9" cy="294.926" class="st2" rx="9" ry="9"/></g></g></g><g id="group90-260" transform="translate(122.315,-10.6335) rotate(30)"><title>Sheet.90</title><g id="group91-261" transform="translate(0,-72)"><title>Sheet.91</title><g id="shape92-262"><title>Sheet.92</title><ellipse cx="9" cy="294.926" class="st2" rx="9" ry="9"/></g><g id="shape93-264" transform="translate(144,0)"><title>Sheet.93</title><ellipse cx="9" cy="294.926" class="st2" rx="9" ry="9"/></g></g><g id="group94-266" transform="translate(-213.926,303.926) rotate(-90)"><title>Sheet.94</title><g id="shape95-267"><title>Sheet.95</title><ellipse cx="9" cy="294.926" class="st2" rx="9" ry="9"/></g><g id="shape96-269" transform="translate(144,0)"><title>Sheet.96</title><ellipse cx="9" cy="294.926" class="st2" rx="9" ry="9"/></g></g></g></g><g id="shape124-271" transform="translate(34.2,-34.2)"><title>Sheet.124</title><ellipse cx="46.8" cy="257.126" class="st1" rx="46.8" ry="46.8"/></g><g id="shape97-273" transform="translate(-180.577,68.8291) rotate(-45)"><title>Sheet.97</title><desc>Fully connected</desc><rect width="152" height="20" x="0" y="283.926" class="st7"/><text x="37.59" y="297.53" class="st3">Fully connected</text></g></g><g id="group132-276" transform="translate(184.5,-246.25)"><title>Sheet.132</title><g id="shape21-277"><title>Sheet.21</title><desc>A</desc><ellipse cx="9" cy="294.926" class="st2" rx="9" ry="9"/><text x="5.53" y="298.53" class="st3">A</text></g><g id="shape22-280" transform="translate(45,0)"><title>Sheet.22</title><desc>B</desc><ellipse cx="9" cy="294.926" class="st2" rx="9" ry="9"/><text x="5.74" y="298.53" class="st3">B</text></g><g id="shape24-283" transform="translate(18,-9)"><title>Sheet.24</title><path d="M0 303.93 L21.28 303.93" class="st8"/></g><g id="shape25-288" transform="translate(90,0)"><title>Sheet.25</title><desc>C</desc><ellipse cx="9" cy="294.926" class="st2" rx="9" ry="9"/><text x="5.8" y="298.53" class="st3">C</text></g><g id="shape27-291" transform="translate(135,0)"><title>Sheet.27</title><desc>D</desc><ellipse cx="9" cy="294.926" class="st2" rx="9" ry="9"/><text x="5.31" y="298.53" class="st3">D</text></g><g id="shape29-294" transform="translate(180,0)"><title>Sheet.29</title><desc>E</desc><ellipse cx="9" cy="294.926" class="st2" rx="9" ry="9"/><text x="6.07" y="298.53" class="st3">E</text></g><g id="shape129-297" transform="translate(63,-9)"><title>Sheet.129</title><path d="M0 303.93 L21.28 303.93" class="st8"/></g><g id="shape130-302" transform="translate(108,-9)"><title>Sheet.130</title><path d="M0 303.93 L21.28 303.93" class="st8"/></g><g id="shape131-307" transform="translate(153,-9)"><title>Sheet.131</title><path d="M0 303.93 L21.28 303.93" class="st8"/></g></g><g id="group133-312" transform="translate(418.5,-237.25)"><title>Sheet.133</title><g id="shape23-313" transform="translate(36,-18)"><title>Sheet.23</title><path d="M5.36 303.93 L5.72 303.93 L57.28 303.93" class="st4"/></g><g id="shape99-320"><title>Sheet.99</title><desc>A 100x</desc><ellipse cx="18" cy="285.926" class="st2" rx="18" ry="18"/><text x="14.53" y="282.33" class="st3">A<tspan x="6.28" class="st9" dy="1.2em">100</tspan>x</text></g><g id="shape100-324" transform="translate(99,0)"><title>Sheet.100</title><desc>B 100x</desc><ellipse cx="18" cy="285.926" class="st2" rx="18" ry="18"/><text x="14.74" y="282.33" class="st3">B<tspan x="6.28" class="st9" dy="1.2em">100</tspan>x</text></g></g><g id="shape134-328" transform="translate(83.75,-221.75)"><title>Sheet.134</title><desc>(a)</desc><rect width="37.75" height="20" x="0" y="283.926" class="st7"/><text x="9.94" y="298.73" class="st10">(a)</text></g><g id="shape135-331" transform="translate(264.625,-221.75)"><title>Sheet.135</title><desc>(b)</desc><rect width="37.75" height="20" x="0" y="283.926" class="st7"/><text x="9.6" y="298.73" class="st10">(b)</text></g><g id="shape136-334" transform="translate(468,-221.75)"><title>Sheet.136</title><desc>(c)</desc><rect width="37.75" height="20" x="0" y="283.926" class="st7"/><text x="10.54" y="298.73" class="st10">(c)</text></g><g id="shape137-337" transform="translate(164.75,-37.25)"><title>Sheet.137</title><desc>(d)</desc><rect width="37.75" height="20" x="0" y="283.926" class="st7"/><text x="9.6" y="298.73" class="st10">(d)</text></g><g id="shape138-340" transform="translate(293.875,-37.25)"><title>Sheet.138</title><desc>(e)</desc><rect width="37.75" height="20" x="0" y="283.926" class="st7"/><text x="9.86" y="298.73" class="st10">(e)</text></g><g id="shape139-343" transform="translate(468.5,-37.25)"><title>Sheet.139</title><desc>(f)</desc><rect width="37.75" height="20" x="0" y="283.926" class="st7"/><text x="11.36" y="298.73" class="st10">(f)</text></g></g></svg>